<?xml version="1.0" encoding="UTF-8" standalone="no" ?>
<!DOCTYPE svg PUBLIC "-//W3C//DTD SVG 1.1//EN" "http://www.w3.org/Graphics/SVG/1.1/DTD/svg11.dtd">
<svg xmlns="http://www.w3.org/2000/svg" xmlns:xlink="http://www.w3.org/1999/xlink" version="1.1" width="25" height="41" viewBox="0 0 25 41" xml:space="preserve">
<desc>Created with Fabric.js 5.3.0</desc>
<defs>
</defs>
<g transform="matrix(0.1275444475 0 0 0.1275444475 12.5825763053 20.5)" id="PVry2LqWmvep37v5HWG4T"  >
<g style=""   >
		<g transform="matrix(1 0 0 1 0 0)" id="Ma9Md9uj3PAnM_4VTnCOr"  >
<path style="stroke: rgb(225,226,98); stroke-width: 0; stroke-dasharray: none; stroke-linecap: butt; stroke-dashoffset: 0; stroke-linejoin: miter; stroke-miterlimit: 4; fill: rgb(241,76,72); fill-rule: nonzero; opacity: 1;"  transform=" translate(-96.646685, -155.0325795169)" d="M 96.64669 0 C 149.99566000000002 0.00001 193.29337 43.29772 193.29337 96.64669 C 193.29337 103.54719 192.56898 110.27953000000001 191.19214000000002 116.77176 L 2.1012300000000153 116.77176 C 0.7243900000000152 110.27953 1.509903313490213e-14 103.54719 1.509903313490213e-14 96.64669 C 1.509903313490213e-14 43.297720000000005 43.297710000000016 0.000010000000003174137 96.64668000000002 0 z M 18.06103 152.89386 C 12.162519999999999 144.67023999999998 7.522309999999999 135.48396 4.422809999999998 125.61740999999999 z M 96.64668 310.06516 L 18.061030000000002 152.89386 C 35.60313000000001 177.35079 64.27443 193.29337999999998 96.64668 193.29337999999998 C 96.64668 193.29337999999998 96.64668 193.29337999999998 96.64669 193.29337999999998 L 96.64669 193.29337999999998 C 64.27444 193.29337999999998 35.60314 177.35079 18.061040000000006 152.89386 L 4.422820000000005 125.61740999999999 C 3.514180000000005 122.72494999999999 2.7379400000000054 119.77403 2.101240000000005 116.77176 L 191.19215000000003 116.77176 C 190.55544000000003 119.77403 189.77921000000003 122.72495 188.87057000000001 125.61741 L 188.87054 125.61747000000001 C 185.77105 135.48397 181.13085 144.67022 175.23237 152.89381 L 175.23235 152.89385000000001 C 175.23234 152.89386000000002 175.23233 152.89388000000002 175.23232 152.89389000000003 z M 175.23233 152.89386 L 175.23230999999998 152.89389 C 157.69020999999998 177.3508 129.01891999999998 193.29336999999998 96.64668999999998 193.29336999999998 L 96.64667999999998 193.29337999999998 C 129.01892999999998 193.29337999999998 157.69022999999999 177.35079 175.23231999999996 152.89386 z" stroke-linecap="round" />
</g>
		<g transform="matrix(0.815993408 0 0 0.815993408 0 -69.0150322846)" id="9t0DBMqogZmPU0upyKhMR"  >
<g style=""   >
		<g transform="matrix(1.0233210815 -1.0596800006 0.2009917782 0.194095504 -37.1364137724 -23.1168846231)" id="g_qZkaI216ftYyX4qu2AB"  >
<path style="stroke: rgb(128,47,95); stroke-width: 0; stroke-dasharray: none; stroke-linecap: butt; stroke-dashoffset: 0; stroke-linejoin: miter; stroke-miterlimit: 4; fill: rgb(255,255,255); fill-rule: nonzero; opacity: 1;"  transform=" translate(0.000005, 0.000005)" d="M -43.04348 -43.04348 L 43.04347 -43.04348 L 43.04347 43.04347 L -43.04348 43.04347 z" stroke-linecap="round" />
</g>
		<g transform="matrix(-1.0596796308 -1.0233207244 -0.207684632 0.2150637321 35.283330295 -23.77936737)" id="2F45wsQnrhFj-HEGMyGu-"  >
<path style="stroke: rgb(128,47,95); stroke-width: 0; stroke-dasharray: none; stroke-linecap: butt; stroke-dashoffset: 0; stroke-linejoin: miter; stroke-miterlimit: 4; fill: rgb(255,255,255); fill-rule: nonzero; opacity: 1;"  transform=" translate(0, 0)" d="M -43.04348 -43.04348 L 43.04347 -43.04348 L 43.04347 43.04347 L -43.04348 43.04347 z" stroke-linecap="round" />
</g>
		<g transform="matrix(0.4440794079 0.4440794079 -0.4440794079 0.4440794079 -0.7427013847 -3.8286900552)" id="LAhb1wSezEqzVX0livtQA"  >
<path style="stroke: rgb(33,66,238); stroke-width: 0; stroke-dasharray: none; stroke-linecap: butt; stroke-dashoffset: 0; stroke-linejoin: miter; stroke-miterlimit: 4; fill: rgb(255,255,255); fill-rule: nonzero; opacity: 1;"  transform=" translate(-0.000005, -0.000005)" d="M -25.49669 -14.67936 C -25.49669 -20.65361 -20.65361 -25.49669 -14.67936 -25.49669 L 14.67937 -25.49669 L 14.67937 -25.49669 C 20.65362 -25.49669 25.4967 -20.65361 25.4967 -14.67936 L 25.4967 14.67937 L 25.4967 14.67937 C 25.4967 20.65362 20.65362 25.4967 14.67937 25.4967 L -14.67936 25.4967 L -14.67936 25.4967 C -20.65361 25.4967 -25.49669 20.65362 -25.49669 14.67937 z" stroke-linecap="round" />
</g>
		<g transform="matrix(0.4440794079 0.4440794079 -0.4440794079 0.4440794079 0.6686176593 54.4386247723)" id="QcQ4FFLvUPhhqbnxKtcvE"  >
<path style="stroke: rgb(33,66,238); stroke-width: 0; stroke-dasharray: none; stroke-linecap: butt; stroke-dashoffset: 0; stroke-linejoin: miter; stroke-miterlimit: 4; fill: rgb(255,255,255); fill-rule: nonzero; opacity: 1;"  transform=" translate(-0.000005, -0.000005)" d="M -25.49669 -14.67936 C -25.49669 -20.65361 -20.65361 -25.49669 -14.67936 -25.49669 L 14.67937 -25.49669 L 14.67937 -25.49669 C 20.65362 -25.49669 25.4967 -20.65361 25.4967 -14.67936 L 25.4967 14.67937 L 25.4967 14.67937 C 25.4967 20.65362 20.65362 25.4967 14.67937 25.4967 L -14.67936 25.4967 L -14.67936 25.4967 C -20.65361 25.4967 -25.49669 20.65362 -25.49669 14.67937 z" stroke-linecap="round" />
</g>
		<g transform="matrix(0.4440794079 0.4440794079 -0.4440794079 0.4440794079 -28.6987321935 26.7323241194)" id="5zSDqE0qZysrQhoMrryvW"  >
<path style="stroke: rgb(33,66,238); stroke-width: 0; stroke-dasharray: none; stroke-linecap: butt; stroke-dashoffset: 0; stroke-linejoin: miter; stroke-miterlimit: 4; fill: rgb(255,255,255); fill-rule: nonzero; opacity: 1;"  transform=" translate(-0.000005, -0.000005)" d="M -25.49669 -14.67936 C -25.49669 -20.65361 -20.65361 -25.49669 -14.67936 -25.49669 L 14.67937 -25.49669 L 14.67937 -25.49669 C 20.65362 -25.49669 25.4967 -20.65361 25.4967 -14.67936 L 25.4967 14.67937 L 25.4967 14.67937 C 25.4967 20.65362 20.65362 25.4967 14.67937 25.4967 L -14.67936 25.4967 L -14.67936 25.4967 C -20.65361 25.4967 -25.49669 20.65362 -25.49669 14.67937 z" stroke-linecap="round" />
</g>
		<g transform="matrix(0.4440794079 0.4440794079 -0.4440794079 0.4440794079 28.9728960244 25.2706008235)" id="EcehKdhVQf_kUBObBf-EY"  >
<path style="stroke: rgb(33,66,238); stroke-width: 0; stroke-dasharray: none; stroke-linecap: butt; stroke-dashoffset: 0; stroke-linejoin: miter; stroke-miterlimit: 4; fill: rgb(255,255,255); fill-rule: nonzero; opacity: 1;"  transform=" translate(-0.000005, -0.000005)" d="M -25.49669 -14.67936 C -25.49669 -20.65361 -20.65361 -25.49669 -14.67936 -25.49669 L 14.67937 -25.49669 L 14.67937 -25.49669 C 20.65362 -25.49669 25.4967 -20.65361 25.4967 -14.67936 L 25.4967 14.67937 L 25.4967 14.67937 C 25.4967 20.65362 20.65362 25.4967 14.67937 25.4967 L -14.67936 25.4967 L -14.67936 25.4967 C -20.65361 25.4967 -25.49669 20.65362 -25.49669 14.67937 z" stroke-linecap="round" />
</g>
</g>
</g>
</g>
</g>
</svg>