<?xml version="1.0" encoding="UTF-8" standalone="no" ?>
<!DOCTYPE svg PUBLIC "-//W3C//DTD SVG 1.1//EN" "http://www.w3.org/Graphics/SVG/1.1/DTD/svg11.dtd">
<svg xmlns="http://www.w3.org/2000/svg" xmlns:xlink="http://www.w3.org/1999/xlink" version="1.1" width="35" height="35" viewBox="0 0 35 35" xml:space="preserve">
<desc>Created with Fabric.js 5.3.0</desc>
<defs>
</defs>
<g transform="matrix(1 0 0 1 17.5 17.5)" id="qwGzx52q-TEWG3LknxKUj"  >
<path style="stroke: none; stroke-width: 1; stroke-dasharray: none; stroke-linecap: butt; stroke-dashoffset: 0; stroke-linejoin: miter; stroke-miterlimit: 4; fill: rgb(255,255,255); fill-rule: nonzero; opacity: 1;"  transform=" translate(-16.80228, -14.821125)" d="M 29.50871 29.64225 L 18.63543 29.64225 L 18.63543 22.43216 L 21.08797 22.43216 L 21.08797 18.98595 L 26.184649999999998 18.98595 C 26.184649999999998 16.17258 23.901339999999998 13.88927 21.08797 13.88927 L 12.545079999999999 13.88927 L 12.545069999999999 17.13329 L 9.02991 13.85564 L 9.02991 13.835859999999998 L 9.0087 13.835859999999998 L 9.00868 13.83584 L 9.00868 13.835859999999998 L 7.4199 13.835859999999998 L 7.4199 22.378749999999997 L 9.00868 22.378749999999997 L 9.00868 22.378769999999996 L 9.0087 22.378749999999997 L 9.02991 22.378749999999997 L 9.02991 22.358969999999996 L 12.545069999999999 19.081319999999995 L 12.545069999999999 22.432159999999996 L 14.969119999999998 22.432159999999996 L 14.969119999999998 29.642249999999997 L 4.095829999999998 29.642249999999997 L 4.095829999999998 9.778889999999997 L -2.6645352591003757e-15 9.778889999999997 L 16.802279999999996 -3.552713678800501e-15 L 33.60455999999999 9.778889999999997 L 29.508719999999993 9.778889999999997 z" stroke-linecap="round" />
</g>
</svg>