<?xml version="1.0" encoding="UTF-8" standalone="no" ?>
<!DOCTYPE svg PUBLIC "-//W3C//DTD SVG 1.1//EN" "http://www.w3.org/Graphics/SVG/1.1/DTD/svg11.dtd">
<svg xmlns="http://www.w3.org/2000/svg" xmlns:xlink="http://www.w3.org/1999/xlink" version="1.1" width="35" height="35" viewBox="0 0 35 35" xml:space="preserve">
<desc>Created with Fabric.js 5.3.0</desc>
<defs>
</defs>
<g transform="matrix(1 0 0 1 17.4999852307 17.4999984403)" id="QpTKjz0kcDZxe-xRA8I7O"  >
<path style="stroke: rgb(177,11,141); stroke-width: 0; stroke-dasharray: none; stroke-linecap: butt; stroke-dashoffset: 0; stroke-linejoin: miter; stroke-miterlimit: 4; fill: rgb(255,255,255); fill-rule: nonzero; opacity: 1;"  transform=" translate(-17.220585, -15.9612)" d="M 17.18548 0 L 17.220589999999998 0.03511 L 17.255699999999997 0 L 34.44117 17.18547 L 32.38637 19.24027 L 27.611559999999997 14.465459999999998 L 27.611559999999997 31.922399999999996 L 18.767269999999996 31.922399999999996 L 18.767269999999996 23.361179999999997 L 22.056899999999995 23.361179999999997 L 22.056899999999995 18.982479999999995 L 26.685949999999995 18.982479999999995 C 26.693499999999993 18.874739999999996 26.697339999999993 18.765979999999995 26.697339999999993 18.656319999999994 C 26.697339999999993 16.113459999999993 24.63356999999999 14.049689999999995 22.090709999999994 14.049689999999995 L 22.090709999999994 14.049699999999994 C 22.079419999999995 14.049699999999994 22.068149999999996 14.049749999999994 22.056889999999996 14.049829999999995 L 22.056889999999996 14.049699999999994 L 12.865409999999995 14.049699999999994 L 12.865409999999995 17.383089999999996 L 9.351879999999996 14.075459999999996 L 9.351879999999996 14.049709999999996 L 7.743849999999996 14.049709999999996 L 7.743849999999996 23.292109999999994 L 9.351879999999996 23.292109999999994 L 9.351879999999996 23.266359999999995 L 11.778969999999996 20.981509999999997 L 12.865419999999995 19.958699999999997 L 12.865419999999995 23.361179999999997 L 16.155069999999995 23.361179999999997 L 16.155069999999995 31.922399999999996 L 6.441269999999994 31.922399999999996 L 6.441269999999994 14.853799999999996 L 2.054799999999994 19.240269999999995 L -6.217248937900877e-15 17.185469999999995 L 6.4412599999999935 10.744209999999995 L 6.4412599999999935 10.676699999999995 L 6.508769999999994 10.676699999999995 z" stroke-linecap="round" />
</g>
</svg>