<?xml version="1.0" encoding="UTF-8" standalone="no" ?>
<!DOCTYPE svg PUBLIC "-//W3C//DTD SVG 1.1//EN" "http://www.w3.org/Graphics/SVG/1.1/DTD/svg11.dtd">
<svg xmlns="http://www.w3.org/2000/svg" xmlns:xlink="http://www.w3.org/1999/xlink" version="1.1" width="35" height="35" viewBox="0 0 35 35" xml:space="preserve">
<desc>Created with Fabric.js 5.3.0</desc>
<defs>
</defs>
<g transform="matrix(0.9427021409 0 0 0.9427021409 22.9176435171 33.2998536077)" id="m0bkj1e_gI97VOszmhTaj"  >
<path style="stroke: rgb(196,215,134); stroke-width: 0; stroke-dasharray: none; stroke-linecap: butt; stroke-dashoffset: 0; stroke-linejoin: miter; stroke-miterlimit: 4; fill: rgb(186,225,159); fill-rule: nonzero; opacity: 1;"  transform=" translate(-0.000005, -0.000355)" d="M 0.00001 0.00071 L 0 0.00071 L 0 0 L 0.00001 0 z" stroke-linecap="round" />
</g>
<g transform="matrix(3.3511961902 0 0 3.3511961902 16.9966586349 21.1361246665)" id="ArtegXko7oFz4J7rp0YF8"  >
<path style="stroke: none; stroke-width: 1; stroke-dasharray: none; stroke-linecap: butt; stroke-dashoffset: 0; stroke-linejoin: miter; stroke-miterlimit: 4; fill: rgb(255,255,255); fill-rule: nonzero; opacity: 1;"  transform=" translate(-4.51381, -2.932015)" d="M 4.81337 5.76515 L 7.37059 4.17299 L 7.37059 4.17065 L 7.78177 3.9143700000000003 L 8.85292 3.2467700000000006 C 8.96158 3.1790500000000006 9.027619999999999 3.0600600000000004 9.027619999999999 2.9320200000000005 C 9.027619999999999 2.8039800000000006 8.96158 2.6850000000000005 8.85292 2.6172700000000004 L 7.781769999999999 1.9496600000000004 L 7.370589999999999 1.6933800000000003 L 7.370589999999999 1.6910400000000003 L 4.813369999999999 0.0988800000000003 C 4.7210399999999995 0.0414000000000003 4.618199999999999 0.008440000000000294 4.513819999999999 3.0531133177191805e-16 C 4.513809999999999 3.0531133177191805e-16 4.513809999999999 3.0531133177191805e-16 4.513809999999999 3.0531133177191805e-16 C 4.5138 3.0531133177191805e-16 4.5138 3.0531133177191805e-16 4.5138 3.0531133177191805e-16 C 4.409409999999999 0.008440000000000305 4.30657 0.04139000000000031 4.21425 0.0988800000000003 L 1.6570299999999998 1.6910400000000003 L 1.6570299999999998 1.6933800000000003 L 1.24585 1.9496600000000004 L 0.17469999999999986 2.6172700000000004 C 0.06603999999999985 2.6849900000000004 -1.3877787807814457e-16 2.8039800000000006 -1.3877787807814457e-16 2.9320200000000005 C -1.3877787807814457e-16 3.0600600000000004 0.06603999999999986 3.1790400000000005 0.17469999999999986 3.2467700000000006 L 1.24585 3.914370000000001 L 1.6570299999999998 4.170650000000001 L 1.6570299999999998 4.172990000000001 L 4.21425 5.765150000000001 C 4.306579999999999 5.822630000000001 4.40942 5.855590000000001 4.5138 5.864030000000001 C 4.513809999999999 5.864030000000001 4.513809999999999 5.864030000000001 4.513809999999999 5.864030000000001 C 4.513819999999999 5.864030000000001 4.513819999999999 5.864030000000001 4.513819999999999 5.864030000000001 C 4.6182099999999995 5.855590000000001 4.721049999999999 5.822630000000001 4.813369999999999 5.765150000000001 z M 4.51382 2.93237 L 4.51381 2.93237 L 4.51381 2.93166 L 4.51382 2.93166 z" stroke-linecap="round" />
</g>
<g transform="matrix(0.9427021409 0 0 0.9427021409 22.9176435171 33.2998536077)" id="F0OTxxYGecomm8WM5vYvb"  >
<path style="stroke: rgb(196,215,134); stroke-width: 0; stroke-dasharray: none; stroke-linecap: butt; stroke-dashoffset: 0; stroke-linejoin: miter; stroke-miterlimit: 4; fill: rgb(186,225,159); fill-rule: nonzero; opacity: 1;"  transform=" translate(-0.000005, -0.000355)" d="M 0.00001 0 L 0 0 L 0 0.00071 L 0.00001 0.00071 z" stroke-linecap="round" />
</g>
<g transform="matrix(-0.7091506506 0.7343469957 -0.7343469957 -0.7091506506 14.3724593769 18.2443962949)" id="aPnuBD10oVsAOZHYZlELY"  >
<path style="stroke: rgb(241,76,72); stroke-width: 0.7; stroke-dasharray: none; stroke-linecap: butt; stroke-dashoffset: 0; stroke-linejoin: miter; stroke-miterlimit: 4; fill: rgb(255,255,255); fill-rule: nonzero; opacity: 1;"  transform=" translate(-5.660175, -8.628485)" d="M 2.4315 1.88276 L 2.4315200000000003 1.88276 C 2.4315200000000003 1.3541400000000001 2.8605500000000004 0.92511 3.3891700000000005 0.92511 C 3.9177900000000005 0.92511 4.34682 1.3541400000000001 4.34682 1.88276 C 4.34682 1.88372 4.34682 1.88469 4.34682 1.88565 L 4.34682 8.386 L 4.77796 8.386 L 4.77796 0.9576599999999988 C 4.77796 0.9576599999999988 4.77796 0.9576499999999989 4.77796 0.9576499999999989 C 4.77796 0.9576499999999989 4.77796 0.9576399999999989 4.77796 0.9576399999999989 L 4.77796 0.9302799999999989 L 4.77834 0.9302799999999989 C 4.79284 0.4142999999999989 5.21614 -1.1102230246251565e-15 5.73561 -1.1102230246251565e-15 C 6.25508 -1.1102230246251565e-15 6.67837 0.4142999999999989 6.692880000000001 0.9302799999999989 L 6.693280000000001 0.9302799999999989 L 6.693280000000001 8.386 L 7.058520000000001 8.386 L 7.058520000000001 2.347909999999999 C 7.058520000000001 2.347909999999999 7.058520000000001 2.3478999999999988 7.058520000000001 2.3478999999999988 C 7.058520000000001 2.3478999999999988 7.058520000000001 2.3478999999999988 7.058520000000001 2.3478999999999988 C 7.058520000000001 1.8192799999999987 7.487550000000001 1.3902499999999987 8.01617 1.3902499999999987 C 8.54479 1.3902499999999987 8.97382 1.8192799999999987 8.97382 2.3478999999999988 C 8.97382 2.3478999999999988 8.97382 2.3478999999999988 8.97382 2.3478999999999988 L 8.97384 2.3478999999999988 L 8.97384 8.386 L 9.405 8.386 L 9.405 4.617469999999999 L 9.40541 4.617469999999999 C 9.405149999999999 4.6083799999999995 9.40503 4.599249999999999 9.40503 4.590099999999999 C 9.40503 4.061479999999999 9.834060000000001 3.6324499999999986 10.36268 3.6324499999999986 C 10.8913 3.6324499999999986 11.320329999999998 4.061479999999999 11.320329999999998 4.590099999999999 C 11.320329999999998 4.599249999999999 11.320199999999998 4.608379999999999 11.319949999999999 4.617469999999999 L 11.320329999999998 4.617469999999999 L 11.320329999999998 8.386 L 11.320339999999998 8.386 L 11.320339999999998 17.25697 L 2.4314899999999984 17.25697 L 2.4314899999999984 16.96846 L 0.07448999999999817 9.71437 C 0.05402999999999817 9.66572 0.03746999999999817 9.61503 0.02520999999999817 9.562700000000001 L 0.000009999999998171194 9.485140000000001 L 0.009929999999998171 9.48192 C 0.0033899999999981714 9.436770000000001 0.000009999999998171194 9.39061 0.000009999999998171194 9.34366 C 0.000009999999998171194 8.81504 0.4290399999999982 8.38601 0.9576599999999982 8.38601 C 1.3255899999999983 8.38601 1.6452799999999983 8.59385 1.8056399999999981 8.89846 L 1.821589999999998 8.89328 L 2.431489999999998 10.77037 L 2.431489999999998 8.38602 L 2.431509999999998 8.38602 z" stroke-linecap="round" />
</g>
<g transform="matrix(0.8705416889 0 0 0.8705416889 32.1919832686 43.3321405583)" id="Inr-n-OaBYWvMiDIWKNMP"  >
<path style="stroke: rgb(196,215,134); stroke-width: 0; stroke-dasharray: none; stroke-linecap: butt; stroke-dashoffset: 0; stroke-linejoin: miter; stroke-miterlimit: 4; fill: rgb(186,225,159); fill-rule: nonzero; opacity: 1;"  transform=" translate(-1.743695, -0.000355)" d="M 1.56162 0.00071 L 1.56162 0 L 0 0 L 0 0.00071 L 3.48739 0.00071 L 3.48739 0.0007 z" stroke-linecap="round" />
</g>
<g transform="matrix(0.6310152391 0 0 0.6310152391 19.1613129033 6.4324260263)" id="EcgDNuwszSQunTKY55hH9"  >
<path style="stroke: rgb(241,76,72); stroke-width: 1; stroke-dasharray: none; stroke-linecap: butt; stroke-dashoffset: 0; stroke-linejoin: miter; stroke-miterlimit: 4; fill: rgb(255,255,255); fill-rule: nonzero; opacity: 1;"  transform=" translate(-7.089125, -7)" d="M 0 7 C 3.864 7 7 3.864 7 0 C 7 3.864 10.136 7 14 7 L 14.17825 7 C 10.314250000000001 7 7.17825 10.136 7.17825 14 C 7.17825 10.136 4.04225 7 0.17825000000000024 7 z" stroke-linecap="round" />
</g>
<g transform="matrix(0.6310152391 0 0 0.6310152391 4.983251191 9.6347690736)" id="7J_qynOvz65Qjs0J2v9vH"  >
<path style="stroke: rgb(241,76,72); stroke-width: 1; stroke-dasharray: none; stroke-linecap: butt; stroke-dashoffset: 0; stroke-linejoin: miter; stroke-miterlimit: 4; fill: rgb(255,255,255); fill-rule: nonzero; opacity: 1;"  transform=" translate(-7.089125, -7)" d="M 0 7 C 3.864 7 7 3.864 7 0 C 7 3.864 10.136 7 14 7 L 14.17825 7 C 10.314250000000001 7 7.17825 10.136 7.17825 14 C 7.17825 10.136 4.04225 7 0.17825000000000024 7 z" stroke-linecap="round" />
</g>
<g transform="matrix(0.6310152391 0 0 0.6310152391 30.016748809 12.1963654982)" id="Pb-k3zq-oXcgaBKTv0LHu"  >
<path style="stroke: rgb(241,76,72); stroke-width: 1; stroke-dasharray: none; stroke-linecap: butt; stroke-dashoffset: 0; stroke-linejoin: miter; stroke-miterlimit: 4; fill: rgb(255,255,255); fill-rule: nonzero; opacity: 1;"  transform=" translate(-7.089125, -7)" d="M 0 7 C 3.864 7 7 3.864 7 0 C 7 3.864 10.136 7 14 7 L 14.17825 7 C 10.314250000000001 7 7.17825 10.136 7.17825 14 C 7.17825 10.136 4.04225 7 0.17825000000000024 7 z" stroke-linecap="round" />
</g>
<g transform="matrix(0.8705416889 0 0 0.8705416889 -20.040552238 36.57591213)" id="pd19E8mfvV0DjGudnbckl"  >
<path style="stroke: rgb(196,215,134); stroke-width: 0; stroke-dasharray: none; stroke-linecap: butt; stroke-dashoffset: 0; stroke-linejoin: miter; stroke-miterlimit: 4; fill: rgb(186,225,159); fill-rule: nonzero; opacity: 1;"  transform=" translate(-1.7437, -0.00036)" d="M 3.4874 0 L 3.12018 0 L 3.12018 0.00071 L 0 0.00071 L 0 0.00072 L 3.48739 0.00072 z" stroke-linecap="round" />
</g>
<g transform="matrix(0.8705416889 0 0 0.8705416889 -9.1050382362 36.5758990719)" id="volnxpfrmedS4vzA3d9Bv"  >
<path style="stroke: rgb(196,215,134); stroke-width: 0; stroke-dasharray: none; stroke-linecap: butt; stroke-dashoffset: 0; stroke-linejoin: miter; stroke-miterlimit: 4; fill: rgb(186,225,159); fill-rule: nonzero; opacity: 1;"  transform=" translate(-1.743695, -0.000355)" d="M 0.36722 0.00071 L 0.36722 0 L 0 0 L 0 0.00071 L 3.48739 0.00071 L 3.48739 0.0007 z" stroke-linecap="round" />
</g>
</svg>