<?xml version="1.0" encoding="UTF-8" standalone="no" ?>
<!DOCTYPE svg PUBLIC "-//W3C//DTD SVG 1.1//EN" "http://www.w3.org/Graphics/SVG/1.1/DTD/svg11.dtd">
<svg xmlns="http://www.w3.org/2000/svg" xmlns:xlink="http://www.w3.org/1999/xlink" version="1.1" width="35" height="35" viewBox="0 0 35 35" xml:space="preserve">
<desc>Created with Fabric.js 5.3.0</desc>
<defs>
</defs>
<g transform="matrix(0.5158552253 0 0 0.5158552253 17.5 22.5614935249)" id="Xdyq7aAgsa-AX8SDxQFRr"  >
<path style="stroke: none; stroke-width: 1; stroke-dasharray: none; stroke-linecap: butt; stroke-dashoffset: 0; stroke-linejoin: miter; stroke-miterlimit: 4; fill: rgb(255,255,255); fill-rule: nonzero; opacity: 1;"  transform=" translate(-32.3976934934, -21.163545)" d="M 32.3977 42.32709 C 32.3977 42.32709 32.3977 42.32709 32.39769 42.32709 C 32.39769 42.32709 32.39769 42.32709 32.397679999999994 42.32709 L 32.397679999999994 42.32709 C 32.19532999999999 42.31073 31.995969999999993 42.246829999999996 31.816999999999993 42.1354 L 26.85974999999999 39.04895 L 26.85974999999999 39.044419999999995 L 26.06265999999999 38.547619999999995 L 23.98619999999999 37.25346 C 23.77554999999999 37.12217 23.64752999999999 36.89151 23.64752999999999 36.643299999999996 C 23.64752999999999 36.395089999999996 23.775559999999988 36.164429999999996 23.98619999999999 36.033139999999996 L 26.06265999999999 34.73896 L 26.85974999999999 34.24216 L 26.85974999999999 34.237629999999996 L 31.816999999999993 31.151179999999997 C 31.995969999999993 31.039739999999995 32.19532999999999 30.975849999999998 32.397679999999994 30.959489999999995 L 32.397679999999994 30.959489999999995 C 32.397679999999994 30.959489999999995 32.397679999999994 30.959489999999995 32.39769 30.959489999999995 C 32.39769 30.959489999999995 32.39769 30.959489999999995 32.3977 30.959489999999995 L 32.3977 30.959489999999995 C 32.60005 30.975849999999994 32.79941 31.039739999999995 32.97838 31.151179999999997 L 37.93563 34.237629999999996 L 37.93563 34.24216 L 38.73272 34.73896 L 40.80918 36.033139999999996 C 41.019819999999996 36.164429999999996 41.14785 36.395089999999996 41.14785 36.643299999999996 C 41.14785 36.89151 41.01983 37.12217 40.80918 37.25346 L 38.73272 38.547619999999995 L 37.93563 39.044419999999995 L 37.93563 39.04895 L 32.97838 42.1354 C 32.79941 42.246829999999996 32.60005 42.31073 32.3977 42.32709 z M 41.90499 28.49726 L 41.90499 28.49589 L 41.19313 28.49589 L 41.19313 28.49727 L 47.95354 28.49727 L 47.95354 28.49726 z M 32.3977 26.29801 C 32.3977 26.29801 32.3977 26.29801 32.39769 26.29801 C 32.39769 26.29801 32.39769 26.29801 32.397679999999994 26.29801 L 32.397679999999994 26.29801 C 32.19532999999999 26.281650000000003 31.995969999999993 26.217750000000002 31.816999999999993 26.10632 L 26.85974999999999 23.01987 L 26.85974999999999 23.015340000000002 L 26.06265999999999 22.51854 L 23.98619999999999 21.22438 C 23.77554999999999 21.09309 23.64752999999999 20.86243 23.64752999999999 20.61422 C 23.64752999999999 20.36601 23.775559999999988 20.13535 23.98619999999999 20.00406 L 26.06265999999999 18.70988 L 26.85974999999999 18.213079999999998 L 26.85974999999999 18.20855 L 31.816999999999993 15.1221 C 31.995969999999993 15.01066 32.19532999999999 14.946769999999999 32.397679999999994 14.93041 L 32.397679999999994 14.93041 C 32.397679999999994 14.93041 32.397679999999994 14.93041 32.39769 14.93041 C 32.39769 14.93041 32.39769 14.93041 32.3977 14.93041 L 32.3977 14.93041 C 32.60005 14.94677 32.79941 15.01066 32.97838 15.1221 L 37.93563 18.20855 L 37.93563 18.213079999999998 L 38.73272 18.70988 L 40.80918 20.00406 C 41.019819999999996 20.13535 41.14785 20.36601 41.14785 20.61422 C 41.14785 20.86243 41.01983 21.09309 40.80918 21.22438 L 38.73272 22.51854 L 37.93563 23.015340000000002 L 37.93563 23.01987 L 32.97838 26.10632 C 32.79941 26.21775 32.60005 26.28165 32.3977 26.29801 z M 55.59167 20.61491 L 55.59167 20.613539999999997 L 52.56442 20.613539999999997 L 52.56442 20.614919999999998 L 59.32483 20.614919999999998 L 59.32483 20.61491 z M 32.3977 11.3676 C 32.3977 11.3676 32.3977 11.3676 32.39769 11.3676 C 32.39769 11.3676 32.39769 11.3676 32.397679999999994 11.3676 L 32.397679999999994 11.3676 C 32.19532999999999 11.351239999999999 31.995969999999993 11.28734 31.816999999999993 11.17591 L 26.85974999999999 8.089459999999999 L 26.85974999999999 8.084929999999998 L 26.06265999999999 7.588129999999998 L 23.98619999999999 6.293969999999998 C 23.77554999999999 6.162679999999998 23.64752999999999 5.932019999999998 23.64752999999999 5.683809999999998 C 23.64752999999999 5.435599999999997 23.775559999999988 5.204939999999998 23.98619999999999 5.073649999999997 L 26.06265999999999 3.779469999999997 L 26.85974999999999 3.2826699999999973 L 26.85974999999999 3.2781399999999974 L 31.816999999999993 0.19168999999999725 C 31.995969999999993 0.08024999999999725 32.19532999999999 0.016359999999997238 32.397679999999994 -2.7478019859472624e-15 L 32.397679999999994 -2.7478019859472624e-15 C 32.397679999999994 -2.7478019859472624e-15 32.397679999999994 -2.7478019859472624e-15 32.39769 -2.7478019859472624e-15 C 32.39769 -2.7478019859472624e-15 32.39769 -2.7478019859472624e-15 32.3977 -2.7478019859472624e-15 L 32.3977 -2.7478019859472624e-15 C 32.60005 0.016359999999997252 32.79941 0.08024999999999725 32.97838 0.19168999999999725 L 37.93563 3.2781399999999974 L 37.93563 3.2826699999999973 L 38.73272 3.779469999999997 L 40.80918 5.073649999999997 C 41.019819999999996 5.204939999999997 41.14785 5.435599999999997 41.14785 5.683809999999998 C 41.14785 5.932019999999998 41.01983 6.162679999999997 40.80918 6.293969999999998 L 38.73272 7.588129999999998 L 37.93563 8.084929999999998 L 37.93563 8.089459999999999 L 32.97838 11.175909999999998 C 32.79941 11.287339999999999 32.60005 11.351239999999999 32.3977 11.367599999999998 z M 41.90499 12.8541 L 41.90499 12.852730000000001 L 41.19313 12.852730000000001 L 41.19313 12.85411 L 47.95354 12.85411 L 47.95354 12.8541 z M 0.33867 21.22439 C 0.12802000000000002 21.0931 0 20.86244 0 20.61423 C 0 20.36602 0.12803 20.13536 0.33867 20.00407 L 2.41513 18.709889999999998 L 3.21222 18.213089999999998 L 3.21222 18.20856 L 8.16947 15.12211 C 8.58901 14.86089 9.12057 14.86089 9.54012 15.12211 L 14.37758 18.133969999999998 L 16.26405 19.30851 L 16.26405 19.31957 L 17.36285 20.00442 C 17.573500000000003 20.13571 17.701520000000002 20.36637 17.701520000000002 20.61458 C 17.701520000000002 20.86279 17.573490000000003 21.09345 17.36285 21.22474 L 16.26405 21.909580000000002 L 16.26405 21.91993 L 14.377580000000002 23.09447 L 9.540120000000002 26.10633 C 9.120570000000003 26.36755 8.589010000000002 26.36755 8.169470000000002 26.10633 L 3.212220000000002 23.01988 L 3.212220000000002 23.01535 L 2.415130000000002 22.51855 z M 12.23097 20.61354 L 9.203719999999999 20.61354 L 9.203719999999999 20.614910000000002 L 5.470559999999999 20.614910000000002 L 5.470559999999999 20.61492 L 12.23097 20.61492 z M 11.70996 13.46358 C 11.499310000000001 13.33229 11.37129 13.10163 11.37129 12.85342 C 11.37129 12.60521 11.49932 12.37455 11.70996 12.24326 L 13.78642 10.949079999999999 L 14.58351 10.452279999999998 L 14.58351 10.447749999999997 L 19.54076 7.361299999999997 C 19.9603 7.1000799999999975 20.49186 7.1000799999999975 20.91141 7.361299999999997 L 25.74887 10.373159999999997 L 27.63534 11.547699999999997 L 27.63534 11.558759999999998 L 28.73414 12.243609999999997 C 28.94479 12.374899999999997 29.07281 12.605559999999997 29.07281 12.853769999999997 C 29.07281 13.101979999999998 28.94478 13.332639999999998 28.73414 13.463929999999998 L 27.63534 14.148769999999997 L 27.63534 14.159119999999998 L 25.74887 15.333659999999998 L 20.91141 18.345519999999997 C 20.49186 18.60674 19.9603 18.60674 19.54076 18.345519999999997 L 14.583509999999999 15.259069999999998 L 14.583509999999999 15.254539999999997 L 13.786419999999998 14.757739999999997 z M 23.60226 12.85273 L 22.8904 12.85273 L 22.8904 12.854099999999999 L 16.84185 12.854099999999999 L 16.84185 12.854109999999999 L 23.60226 12.854109999999999 z M 11.70996 29.10674 C 11.499310000000001 28.97545 11.37129 28.74479 11.37129 28.496579999999998 C 11.37129 28.248369999999998 11.49932 28.017709999999997 11.70996 27.886419999999998 L 13.78642 26.592239999999997 L 14.58351 26.095439999999996 L 14.58351 26.090909999999997 L 19.54076 23.004459999999998 C 19.9603 22.743239999999997 20.49186 22.743239999999997 20.91141 23.004459999999998 L 25.74887 26.016319999999997 L 27.63534 27.190859999999997 L 27.63534 27.201919999999998 L 28.73414 27.88677 C 28.94479 28.01806 29.07281 28.24872 29.07281 28.49693 C 29.07281 28.74514 28.94478 28.9758 28.73414 29.10709 L 27.63534 29.79193 L 27.63534 29.80228 L 25.74887 30.97682 L 20.91141 33.98868 C 20.49186 34.249900000000004 19.9603 34.249900000000004 19.54076 33.98868 L 14.583509999999999 30.902230000000003 L 14.583509999999999 30.897700000000004 L 13.786419999999998 30.400900000000004 z M 23.60226 28.49589 L 22.8904 28.49589 L 22.8904 28.49726 L 16.84185 28.49726 L 16.84185 28.49727 L 23.60226 28.49727 z M 62.38026 22.51855 L 61.58317 23.01535 L 61.58317 23.01988 L 56.62592 26.10633 C 56.20638 26.36755 55.674820000000004 26.36755 55.25527 26.10633 L 50.41781 23.09447 L 48.53134 21.91993 L 48.53134 21.909580000000002 L 47.43254 21.22474 C 47.221900000000005 21.09345 47.09387 20.86279 47.09387 20.61458 C 47.09387 20.36637 47.22189 20.13571 47.43254 20.00442 L 48.53134 19.31957 L 48.53134 19.30851 L 50.41781 18.133969999999998 L 55.25527 15.122109999999997 C 55.674820000000004 14.860889999999998 56.20638 14.860889999999998 56.62592 15.122109999999997 L 61.58317 18.20856 L 61.58317 18.213089999999998 L 62.38026 18.709889999999998 L 64.45672 20.00407 C 64.66736 20.13536 64.79539 20.36602 64.79539 20.61423 C 64.79539 20.86244 64.66736999999999 21.0931 64.45672 21.22439 z M 51.00897 14.75774 L 50.21188 15.25454 L 50.21188 15.259070000000001 L 45.25463 18.34552 C 44.83509 18.606740000000002 44.30353 18.606740000000002 43.88398 18.34552 L 39.04652 15.33366 L 37.16005 14.15912 L 37.16005 14.148769999999999 L 36.06125 13.46393 C 35.85061 13.33264 35.72258 13.10198 35.72258 12.853769999999999 C 35.72258 12.605559999999999 35.8506 12.374899999999998 36.06125 12.243609999999999 L 37.16005 11.55876 L 37.16005 11.547699999999999 L 39.04652 10.373159999999999 L 43.88398 7.361299999999998 C 44.30353 7.100079999999998 44.83509 7.100079999999998 45.25463 7.361299999999998 L 50.21188 10.44775 L 50.21188 10.45228 L 51.00897 10.94908 L 53.085429999999995 12.243260000000001 C 53.29606999999999 12.374550000000001 53.424099999999996 12.605210000000001 53.424099999999996 12.853420000000002 C 53.424099999999996 13.101630000000002 53.296079999999996 13.332290000000002 53.085429999999995 13.463580000000002 z M 51.00897 30.4009 L 50.21188 30.8977 L 50.21188 30.90223 L 45.25463 33.98868 C 44.83509 34.249900000000004 44.30353 34.249900000000004 43.88398 33.98868 L 39.04652 30.976820000000004 L 37.16005 29.802280000000003 L 37.16005 29.791930000000004 L 36.06125 29.107090000000003 C 35.85061 28.975800000000003 35.72258 28.745140000000003 35.72258 28.496930000000003 C 35.72258 28.248720000000002 35.8506 28.018060000000002 36.06125 27.886770000000002 L 37.16005 27.20192 L 37.16005 27.19086 L 39.04652 26.01632 L 43.88398 23.00446 C 44.30353 22.74324 44.83509 22.74324 45.25463 23.00446 L 50.21188 26.09091 L 50.21188 26.09544 L 51.00897 26.59224 L 53.085429999999995 27.88642 C 53.29606999999999 28.01771 53.424099999999996 28.24837 53.424099999999996 28.49658 C 53.424099999999996 28.744790000000002 53.296079999999996 28.975450000000002 53.085429999999995 29.106740000000002 z M 32.3977 36.64261 L 32.39769 36.64261 L 32.39769 36.643989999999995 L 32.3977 36.643989999999995 z M 32.3977 20.61353 L 32.39769 20.61353 L 32.39769 20.61353 L 32.39769 20.614910000000002 L 32.3977 20.614910000000002 z M 32.3977 5.68312 L 32.39769 5.68312 L 32.39769 5.68312 L 32.39769 5.6845 L 32.3977 5.6845 z" stroke-linecap="round" />
</g>
<g transform="matrix(-0.7522531453 0.7789809356 -0.7789809356 -0.7522531453 14.3229524473 11.125595989)" id="aPnuBD10oVsAOZHYZlELY"  >
<path style="stroke: rgb(241,76,72); stroke-width: 0.7; stroke-dasharray: none; stroke-linecap: butt; stroke-dashoffset: 0; stroke-linejoin: miter; stroke-miterlimit: 4; fill: rgb(255,255,255); fill-rule: nonzero; opacity: 1;"  transform=" translate(0, 0)" d="M -3.22867 -6.74572 L -3.22865 -6.74572 C -3.22865 -7.2743400000000005 -2.79962 -7.7033700000000005 -2.271 -7.7033700000000005 C -1.7423799999999998 -7.7033700000000005 -1.3133499999999998 -7.2743400000000005 -1.3133499999999998 -6.74572 C -1.3133499999999998 -6.74476 -1.3133499999999998 -6.743790000000001 -1.3133499999999998 -6.7428300000000005 L -1.3133499999999998 -0.24248000000000047 L -0.8822099999999997 -0.24248000000000047 L -0.8822099999999997 -7.670820000000001 L -0.8822099999999997 -7.6708300000000005 L -0.8822099999999997 -7.67084 L -0.8822099999999997 -7.6982 L -0.8818299999999997 -7.6982 C -0.8673299999999997 -8.21418 -0.44402999999999965 -8.62848 0.07544000000000028 -8.62848 C 0.5949100000000003 -8.62848 1.0182000000000002 -8.214179999999999 1.0327100000000002 -7.6982 L 1.0331100000000002 -7.6982 L 1.0331100000000002 -0.24247999999999958 L 1.3983500000000002 -0.24247999999999958 L 1.3983500000000002 -6.28057 L 1.3983500000000002 -6.28058 L 1.3983500000000002 -6.28058 C 1.3983500000000002 -6.8092 1.8273800000000002 -7.23823 2.3560000000000003 -7.23823 C 2.8846200000000004 -7.23823 3.3136500000000004 -6.8092 3.3136500000000004 -6.28058 L 3.3136500000000004 -6.28058 L 3.3136700000000006 -6.28058 L 3.3136700000000006 -0.24247999999999958 L 3.7448300000000003 -0.24247999999999958 L 3.7448300000000003 -4.01101 L 3.7452400000000003 -4.01101 C 3.7449800000000004 -4.020099999999999 3.7448600000000005 -4.02923 3.7448600000000005 -4.03838 C 3.7448600000000005 -4.567 4.17389 -4.99603 4.70251 -4.99603 C 5.23113 -4.99603 5.66016 -4.567 5.66016 -4.03838 C 5.66016 -4.02923 5.66003 -4.0201 5.6597800000000005 -4.01101 L 5.66016 -4.01101 L 5.66016 -0.24247999999999958 L 5.66017 -0.24247999999999958 L 5.66017 8.62849 L -3.2286799999999998 8.62849 L -3.2286799999999998 8.339979999999999 L -5.58568 1.0858899999999991 C -5.60614 1.037239999999999 -5.6227 0.9865499999999991 -5.63496 0.9342199999999992 L -5.66016 0.8566599999999992 L -5.65024 0.8534399999999992 C -5.65678 0.8082899999999992 -5.66016 0.7621299999999992 -5.66016 0.7151799999999993 C -5.66016 0.18655999999999928 -5.23113 -0.24247000000000074 -4.70251 -0.24247000000000074 C -4.33458 -0.24247000000000074 -4.01489 -0.034630000000000744 -3.8545300000000005 0.2699799999999992 L -3.8385800000000003 0.2647999999999992 L -3.22868 2.141889999999999 L -3.22868 -0.24246000000000079 L -3.22866 -0.24246000000000079 z" stroke-linecap="round" />
</g>
</svg>